<svg width="528" height="700" viewBox="0 0 528 700" fill="none" xmlns="http://www.w3.org/2000/svg">
<rect width="528" height="700" fill="#F3F4F6"/>
<path d="M413.503 191.816V184.755C413.378 184.904 413.206 185.025 412.987 185.119C412.768 185.209 412.562 185.255 412.367 185.255V183.791C412.551 183.763 412.749 183.704 412.961 183.614C413.173 183.52 413.369 183.394 413.55 183.234C413.734 183.071 413.874 182.875 413.971 182.646H415.445V191.816H413.503Z" fill="#333333"/>
<path d="M403.616 191.816V182.651H407.282V184.421H405.48V186.208H407.209V187.931H405.48V190.03H407.402V191.816H403.616Z" fill="#333333"/>
<path d="M397.467 191.816V182.651H400.279C400.748 182.651 401.102 182.758 401.341 182.974C401.581 183.185 401.741 183.484 401.82 183.869C401.904 184.251 401.945 184.701 401.945 185.218C401.945 185.718 401.881 186.117 401.753 186.416C401.628 186.714 401.39 186.921 401.039 187.035C401.328 187.095 401.529 187.239 401.643 187.468C401.761 187.693 401.82 187.987 401.82 188.348V191.816H400.013V188.228C400.013 187.961 399.958 187.796 399.847 187.733C399.739 187.667 399.564 187.634 399.321 187.634V191.816H397.467ZM399.331 186.046H399.774C400.027 186.046 400.154 185.77 400.154 185.218C400.154 184.861 400.126 184.626 400.071 184.515C400.015 184.404 399.911 184.348 399.758 184.348H399.331V186.046Z" fill="#333333"/>
<path d="M391.297 191.816V182.651H393.781C394.448 182.651 394.932 182.814 395.234 183.14C395.539 183.463 395.692 183.998 395.692 184.744V185.145C395.692 185.576 395.614 185.925 395.458 186.192C395.305 186.459 395.071 186.635 394.755 186.718C395.168 186.822 395.444 187.067 395.583 187.452C395.725 187.834 395.796 188.301 395.796 188.853C395.796 189.447 395.741 189.966 395.63 190.41C395.519 190.854 395.317 191.2 395.026 191.446C394.734 191.693 394.319 191.816 393.781 191.816H391.297ZM393.088 186.103H393.463C393.634 186.103 393.743 186.037 393.791 185.905C393.84 185.774 393.864 185.616 393.864 185.432V184.51C393.864 184.215 393.734 184.067 393.474 184.067H393.088V186.103ZM393.271 190.202C393.746 190.202 393.984 189.976 393.984 189.525V188.379C393.984 188.119 393.944 187.914 393.864 187.765C393.788 187.612 393.642 187.535 393.427 187.535H393.088V190.191C393.165 190.198 393.226 190.202 393.271 190.202Z" fill="#333333"/>
<path d="M382.273 191.816V182.651H385.065L385.835 188.238L386.601 182.651H389.418V191.816H387.741V185.213L386.689 191.816H385.044L383.929 185.213V191.816H382.273Z" fill="#333333"/>
<path d="M375.781 191.816L376.666 182.651H379.775L380.645 191.816H378.91L378.78 190.337H377.676L377.562 191.816H375.781ZM377.806 188.874H378.64L378.239 184.213H378.155L377.806 188.874Z" fill="#333333"/>
<path d="M369.643 191.816V182.651H371.465V185.926H372.33V182.651H374.152V191.816H372.33V187.66H371.465V191.816H369.643Z" fill="#333333"/>
<path d="M365.649 191.899C364.986 191.899 364.452 191.693 364.045 191.28C363.643 190.866 363.441 190.288 363.441 189.545V185.317C363.441 184.428 363.617 183.748 363.967 183.276C364.321 182.804 364.896 182.568 365.691 182.568C366.125 182.568 366.51 182.647 366.847 182.807C367.187 182.967 367.455 183.206 367.649 183.526C367.843 183.842 367.941 184.241 367.941 184.723V186.306H366.118V184.953C366.118 184.678 366.083 184.494 366.014 184.401C365.944 184.303 365.837 184.255 365.691 184.255C365.521 184.255 365.406 184.317 365.347 184.442C365.288 184.564 365.259 184.727 365.259 184.932V189.519C365.259 189.773 365.295 189.952 365.368 190.056C365.445 190.16 365.552 190.212 365.691 190.212C365.847 190.212 365.957 190.148 366.019 190.019C366.085 189.891 366.118 189.724 366.118 189.519V187.869H367.961V189.603C367.961 190.408 367.758 190.993 367.352 191.358C366.946 191.719 366.378 191.899 365.649 191.899Z" fill="#333333"/>
<path d="M167.732 191.816V191.379C167.732 190.924 167.801 190.516 167.94 190.155C168.082 189.79 168.264 189.454 168.487 189.145C168.709 188.832 168.943 188.527 169.19 188.228C169.429 187.936 169.657 187.638 169.872 187.332C170.09 187.023 170.268 186.69 170.403 186.333C170.542 185.971 170.611 185.567 170.611 185.119C170.611 184.904 170.578 184.72 170.512 184.567C170.45 184.411 170.318 184.333 170.117 184.333C169.811 184.333 169.658 184.605 169.658 185.15V186.27H167.732C167.728 186.19 167.723 186.1 167.716 185.999C167.712 185.899 167.711 185.801 167.711 185.708C167.711 185.048 167.78 184.489 167.919 184.031C168.058 183.569 168.303 183.218 168.653 182.979C169.007 182.736 169.504 182.614 170.143 182.614C170.903 182.614 171.493 182.828 171.913 183.255C172.337 183.682 172.548 184.291 172.548 185.083C172.548 185.621 172.479 186.093 172.34 186.499C172.201 186.902 172.017 187.27 171.788 187.603C171.559 187.933 171.307 188.263 171.033 188.593C170.839 188.825 170.649 189.063 170.465 189.306C170.285 189.549 170.125 189.809 169.986 190.087H172.486V191.816H167.732Z" fill="#333333"/>
<path d="M158.787 191.816V182.651H162.453V184.421H160.652V186.208H162.38V187.931H160.652V190.03H162.573V191.816H158.787Z" fill="#333333"/>
<path d="M152.638 191.816V182.651H155.45C155.919 182.651 156.273 182.758 156.513 182.974C156.752 183.185 156.912 183.484 156.992 183.869C157.075 184.251 157.117 184.701 157.117 185.218C157.117 185.718 157.053 186.117 156.924 186.416C156.799 186.714 156.561 186.921 156.211 187.035C156.499 187.095 156.7 187.239 156.815 187.468C156.933 187.693 156.992 187.987 156.992 188.348V191.816H155.185V188.228C155.185 187.961 155.129 187.796 155.018 187.733C154.911 187.667 154.735 187.634 154.492 187.634V191.816H152.638ZM154.503 186.046H154.945C155.199 186.046 155.325 185.77 155.325 185.218C155.325 184.861 155.298 184.626 155.242 184.515C155.187 184.404 155.082 184.348 154.93 184.348H154.503V186.046Z" fill="#333333"/>
<path d="M146.469 191.816V182.651H148.952C149.619 182.651 150.103 182.814 150.405 183.14C150.711 183.463 150.864 183.998 150.864 184.744V185.145C150.864 185.576 150.785 185.925 150.629 186.192C150.477 186.459 150.242 186.635 149.926 186.718C150.339 186.822 150.615 187.067 150.754 187.452C150.897 187.834 150.968 188.301 150.968 188.853C150.968 189.447 150.912 189.966 150.801 190.41C150.69 190.854 150.489 191.2 150.197 191.446C149.905 191.693 149.491 191.816 148.952 191.816H146.469ZM148.26 186.103H148.635C148.805 186.103 148.914 186.037 148.963 185.905C149.011 185.774 149.036 185.616 149.036 185.432V184.51C149.036 184.215 148.906 184.067 148.645 184.067H148.26V186.103ZM148.442 190.202C148.918 190.202 149.156 189.976 149.156 189.525V188.379C149.156 188.119 149.116 187.914 149.036 187.765C148.959 187.612 148.814 187.535 148.598 187.535H148.26V190.191C148.336 190.198 148.397 190.202 148.442 190.202Z" fill="#333333"/>
<path d="M137.445 191.816V182.651H140.236L141.007 188.238L141.772 182.651H144.59V191.816H142.913V185.213L141.861 191.816H140.215L139.101 185.213V191.816H137.445Z" fill="#333333"/>
<path d="M130.952 191.816L131.837 182.651H134.946L135.816 191.816H134.082L133.952 190.337H132.848L132.733 191.816H130.952ZM132.978 188.874H133.811L133.41 184.213H133.327L132.978 188.874Z" fill="#333333"/>
<path d="M124.814 191.816V182.651H126.637V185.926H127.501V182.651H129.324V191.816H127.501V187.66H126.637V191.816H124.814Z" fill="#333333"/>
<path d="M120.821 191.899C120.158 191.899 119.623 191.693 119.217 191.28C118.814 190.866 118.613 190.288 118.613 189.545V185.317C118.613 184.428 118.788 183.748 119.139 183.276C119.493 182.804 120.067 182.568 120.862 182.568C121.296 182.568 121.682 182.647 122.018 182.807C122.359 182.967 122.626 183.206 122.82 183.526C123.015 183.842 123.112 184.241 123.112 184.723V186.306H121.289V184.953C121.289 184.678 121.255 184.494 121.185 184.401C121.116 184.303 121.008 184.255 120.862 184.255C120.692 184.255 120.578 184.317 120.519 184.442C120.46 184.564 120.43 184.727 120.43 184.932V189.519C120.43 189.773 120.467 189.952 120.54 190.056C120.616 190.16 120.724 190.212 120.862 190.212C121.019 190.212 121.128 190.148 121.19 190.019C121.256 189.891 121.289 189.724 121.289 189.519V187.869H123.133V189.603C123.133 190.408 122.93 190.993 122.524 191.358C122.117 191.719 121.55 191.899 120.821 191.899Z" fill="#333333"/>
<path d="M194.273 343.79V334.625H197.085C197.554 334.625 197.908 334.733 198.147 334.948C198.387 335.16 198.547 335.458 198.626 335.844C198.71 336.226 198.751 336.675 198.751 337.192C198.751 337.692 198.687 338.092 198.559 338.39C198.434 338.689 198.196 338.895 197.845 339.01C198.133 339.069 198.335 339.213 198.449 339.442C198.567 339.668 198.626 339.961 198.626 340.322V343.79H196.819V340.202C196.819 339.935 196.764 339.77 196.653 339.708C196.545 339.642 196.37 339.609 196.127 339.609V343.79H194.273ZM196.137 338.02H196.58C196.833 338.02 196.96 337.744 196.96 337.192C196.96 336.835 196.932 336.601 196.877 336.489C196.821 336.378 196.717 336.323 196.564 336.323H196.137V338.02Z" fill="#333333"/>
<path d="M190.275 343.874C189.511 343.874 188.949 343.66 188.587 343.233C188.226 342.803 188.046 342.171 188.046 341.338V334.625H189.827V341.265C189.827 341.417 189.836 341.565 189.853 341.707C189.87 341.846 189.91 341.961 189.973 342.051C190.035 342.141 190.136 342.186 190.275 342.186C190.417 342.186 190.519 342.143 190.582 342.056C190.644 341.966 190.683 341.85 190.696 341.707C190.714 341.565 190.723 341.417 190.723 341.265V334.625H192.503V341.338C192.503 342.171 192.323 342.803 191.962 343.233C191.601 343.66 191.038 343.874 190.275 343.874Z" fill="#333333"/>
<path d="M184.089 343.874C183.357 343.874 182.796 343.653 182.407 343.212C182.022 342.768 181.829 342.127 181.829 341.291V336.937C181.829 336.153 182.02 335.557 182.402 335.151C182.787 334.745 183.35 334.542 184.089 334.542C184.829 334.542 185.389 334.745 185.771 335.151C186.156 335.557 186.349 336.153 186.349 336.937V341.291C186.349 342.127 186.155 342.768 185.766 343.212C185.381 343.653 184.822 343.874 184.089 343.874ZM184.105 342.186C184.382 342.186 184.521 341.917 184.521 341.379V336.906C184.521 336.455 184.386 336.229 184.115 336.229C183.81 336.229 183.657 336.46 183.657 336.922V341.39C183.657 341.674 183.692 341.879 183.761 342.004C183.831 342.126 183.945 342.186 184.105 342.186Z" fill="#333333"/>
<path d="M177.888 343.874C177.475 343.874 177.099 343.794 176.758 343.634C176.418 343.474 176.147 343.238 175.946 342.926C175.748 342.61 175.649 342.223 175.649 341.765V339.468H177.461V341.655C177.461 341.815 177.493 341.943 177.555 342.041C177.621 342.138 177.725 342.186 177.868 342.186C178.142 342.186 178.279 342.018 178.279 341.681V334.625H180.128V341.499C180.128 341.985 180.032 342.407 179.841 342.764C179.65 343.119 179.386 343.393 179.05 343.587C178.713 343.778 178.326 343.874 177.888 343.874Z" fill="#333333"/>
<path d="M170.396 343.79V334.625H174.062V336.396H172.26V338.182H173.989V339.906H172.26V342.004H174.182V343.79H170.396ZM171.062 334.349V333.188L173.536 332.053V333.86L171.062 334.349Z" fill="#333333"/>
<path d="M166.58 343.874C165.743 343.874 165.139 343.665 164.768 343.249C164.4 342.832 164.216 342.169 164.216 341.259V340.364H166.028V341.509C166.028 341.721 166.059 341.888 166.122 342.009C166.187 342.127 166.3 342.186 166.46 342.186C166.627 342.186 166.741 342.138 166.804 342.041C166.87 341.943 166.903 341.784 166.903 341.562C166.903 341.28 166.875 341.046 166.819 340.859C166.764 340.668 166.667 340.487 166.528 340.317C166.392 340.143 166.203 339.942 165.96 339.713L165.137 338.932C164.523 338.352 164.216 337.689 164.216 336.943C164.216 336.161 164.396 335.566 164.757 335.156C165.122 334.747 165.648 334.542 166.335 334.542C167.175 334.542 167.771 334.766 168.121 335.214C168.475 335.661 168.652 336.342 168.652 337.255H166.788V336.625C166.788 336.5 166.752 336.403 166.679 336.333C166.609 336.264 166.514 336.229 166.392 336.229C166.246 336.229 166.139 336.271 166.069 336.354C166.003 336.434 165.97 336.538 165.97 336.667C165.97 336.795 166.005 336.934 166.075 337.083C166.144 337.232 166.281 337.404 166.486 337.599L167.543 338.614C167.755 338.815 167.949 339.029 168.126 339.255C168.303 339.477 168.446 339.737 168.553 340.036C168.661 340.331 168.715 340.692 168.715 341.119C168.715 341.98 168.555 342.655 168.236 343.145C167.92 343.631 167.368 343.874 166.58 343.874Z" fill="#333333"/>
<path d="M371.443 343.79V334.625H375.109V336.396H373.307V338.182H375.036V339.906H373.307V342.004H375.229V343.79H371.443Z" fill="#333333"/>
<path d="M365.065 343.79V334.625H366.95L367.794 339.015V334.625H369.564V343.79H367.773L366.857 339.208V343.79H365.065Z" fill="#333333"/>
<path d="M361.499 343.79V334.625H363.27V343.79H361.499Z" fill="#333333"/>
<path d="M357.766 343.874C356.93 343.874 356.326 343.665 355.954 343.249C355.586 342.832 355.402 342.169 355.402 341.259V340.364H357.214V341.509C357.214 341.721 357.246 341.888 357.308 342.009C357.374 342.127 357.487 342.186 357.647 342.186C357.813 342.186 357.928 342.138 357.99 342.041C358.056 341.943 358.089 341.784 358.089 341.562C358.089 341.28 358.061 341.046 358.006 340.859C357.95 340.668 357.853 340.487 357.714 340.317C357.579 340.143 357.39 339.942 357.147 339.713L356.324 338.932C355.709 338.352 355.402 337.689 355.402 336.943C355.402 336.161 355.583 335.566 355.944 335.156C356.308 334.747 356.834 334.542 357.522 334.542C358.362 334.542 358.957 334.766 359.308 335.214C359.662 335.661 359.839 336.342 359.839 337.255H357.975V336.625C357.975 336.5 357.938 336.403 357.865 336.333C357.796 336.264 357.7 336.229 357.579 336.229C357.433 336.229 357.325 336.271 357.256 336.354C357.19 336.434 357.157 336.538 357.157 336.667C357.157 336.795 357.192 336.934 357.261 337.083C357.331 337.232 357.468 337.404 357.673 337.599L358.73 338.614C358.941 338.815 359.136 339.029 359.313 339.255C359.49 339.477 359.632 339.737 359.74 340.036C359.848 340.331 359.901 340.692 359.901 341.119C359.901 341.98 359.742 342.655 359.422 343.145C359.106 343.631 358.554 343.874 357.766 343.874Z" fill="#333333"/>
<path d="M352.023 343.79V334.625H353.794V343.79H352.023Z" fill="#333333"/>
<path d="M348.108 343.874C347.345 343.874 346.782 343.66 346.421 343.233C346.06 342.803 345.88 342.171 345.88 341.338V334.625H347.661V341.265C347.661 341.417 347.669 341.565 347.687 341.707C347.704 341.846 347.744 341.961 347.806 342.051C347.869 342.141 347.97 342.186 348.108 342.186C348.251 342.186 348.353 342.143 348.416 342.056C348.478 341.966 348.516 341.85 348.53 341.707C348.548 341.565 348.556 341.417 348.556 341.265V334.625H350.337V341.338C350.337 342.171 350.157 342.803 349.796 343.233C349.435 343.66 348.872 343.874 348.108 343.874Z" fill="#333333"/>
<path d="M341.996 343.874C341.333 343.874 340.798 343.667 340.392 343.254C339.989 342.841 339.788 342.263 339.788 341.52V337.291C339.788 336.403 339.963 335.722 340.314 335.25C340.668 334.778 341.243 334.542 342.038 334.542C342.472 334.542 342.857 334.622 343.194 334.781C343.534 334.941 343.801 335.181 343.996 335.5C344.19 335.816 344.287 336.215 344.287 336.698V338.281H342.465V336.927C342.465 336.653 342.43 336.469 342.361 336.375C342.291 336.278 342.184 336.229 342.038 336.229C341.868 336.229 341.753 336.292 341.694 336.417C341.635 336.538 341.605 336.701 341.605 336.906V341.494C341.605 341.747 341.642 341.926 341.715 342.03C341.791 342.134 341.899 342.186 342.038 342.186C342.194 342.186 342.303 342.122 342.366 341.994C342.432 341.865 342.465 341.699 342.465 341.494V339.843H344.308V341.577C344.308 342.383 344.105 342.968 343.699 343.332C343.293 343.693 342.725 343.874 341.996 343.874Z" fill="#333333"/>
<path d="M263.158 163.821V154.656H265.043L265.887 159.045V154.656H267.657V163.821H265.866L264.95 159.238V163.821H263.158Z" fill="#333333"/>
<path d="M259.592 163.821V154.656H261.363V163.821H259.592Z" fill="#333333"/>
<path d="M253.183 163.821L254.068 154.656H257.177L258.047 163.821H256.313L256.182 162.342H255.078L254.964 163.821H253.183ZM255.209 160.878H256.042L255.641 156.218H255.557L255.209 160.878Z" fill="#333333"/>
<path d="M247.263 163.821V154.656H249.747C250.414 154.656 250.898 154.819 251.2 155.145C251.506 155.468 251.658 156.003 251.658 156.749V157.15C251.658 157.58 251.58 157.929 251.424 158.197C251.271 158.464 251.037 158.639 250.721 158.723C251.134 158.827 251.41 159.071 251.549 159.457C251.691 159.839 251.762 160.306 251.762 160.858C251.762 161.451 251.707 161.97 251.596 162.415C251.485 162.859 251.283 163.204 250.992 163.451C250.7 163.697 250.285 163.821 249.747 163.821H247.263ZM249.055 158.108H249.429C249.6 158.108 249.709 158.042 249.758 157.91C249.806 157.778 249.83 157.62 249.83 157.436V156.515C249.83 156.219 249.7 156.072 249.44 156.072H249.055V158.108ZM249.237 162.206C249.712 162.206 249.95 161.981 249.95 161.529V160.384C249.95 160.123 249.91 159.919 249.83 159.769C249.754 159.616 249.608 159.54 249.393 159.54H249.055V162.196C249.131 162.203 249.192 162.206 249.237 162.206Z" fill="#333333"/>
<path d="M272.986 150.49V141.324H276.652V143.095H274.85V144.881H276.579V146.605H274.85V148.703H276.771V150.49H272.986Z" fill="#333333"/>
<path d="M266.66 150.49V141.324H269.18C269.84 141.324 270.336 141.508 270.67 141.876C271.003 142.241 271.17 142.776 271.17 143.48V147.771C271.17 148.639 271.017 149.309 270.711 149.781C270.409 150.254 269.878 150.49 269.118 150.49H266.66ZM268.503 148.87H268.821C269.158 148.87 269.326 148.707 269.326 148.381V143.652C269.326 143.347 269.284 143.151 269.201 143.064C269.121 142.973 268.956 142.928 268.706 142.928H268.503V148.87Z" fill="#333333"/>
<path d="M257.632 150.49V141.324H261.298V143.095H259.496V144.881H261.225V146.605H259.496V148.703H261.418V150.49H257.632Z" fill="#333333"/>
<path d="M252.327 150.49V141.324H254.16V148.927H256.045V150.49H252.327Z" fill="#333333"/>
<path d="M247.021 150.49V141.324H248.854V148.927H250.739V150.49H247.021Z" fill="#333333"/>
<path d="M240.529 150.49L241.414 141.324H244.523L245.393 150.49H243.658L243.528 149.011H242.424L242.31 150.49H240.529ZM242.555 147.547H243.388L242.987 142.887H242.903L242.555 147.547Z" fill="#333333"/>
<path d="M236.963 150.573C236.126 150.573 235.522 150.365 235.151 149.948C234.783 149.531 234.599 148.868 234.599 147.959V147.063H236.411V148.209C236.411 148.42 236.442 148.587 236.505 148.709C236.571 148.827 236.683 148.886 236.843 148.886C237.01 148.886 237.124 148.837 237.187 148.74C237.253 148.643 237.286 148.483 237.286 148.261C237.286 147.98 237.258 147.745 237.202 147.558C237.147 147.367 237.05 147.186 236.911 147.016C236.775 146.843 236.586 146.641 236.343 146.412L235.52 145.631C234.906 145.051 234.599 144.388 234.599 143.642C234.599 142.861 234.779 142.265 235.14 141.856C235.505 141.446 236.031 141.241 236.718 141.241C237.558 141.241 238.154 141.465 238.504 141.913C238.858 142.361 239.035 143.041 239.035 143.954H237.171V143.324C237.171 143.199 237.135 143.102 237.062 143.032C236.992 142.963 236.897 142.928 236.775 142.928C236.63 142.928 236.522 142.97 236.452 143.053C236.387 143.133 236.354 143.237 236.354 143.366C236.354 143.494 236.388 143.633 236.458 143.782C236.527 143.932 236.664 144.103 236.869 144.298L237.926 145.313C238.138 145.515 238.332 145.728 238.509 145.954C238.686 146.176 238.829 146.436 238.936 146.735C239.044 147.03 239.098 147.391 239.098 147.818C239.098 148.679 238.938 149.354 238.619 149.844C238.303 150.33 237.751 150.573 236.963 150.573Z" fill="#333333"/>
<path d="M412.571 487.766V478.601H416.237V480.371H414.435V482.158H416.164V483.881H414.435V485.98H416.356V487.766H412.571Z" fill="#333333"/>
<path d="M407.109 487.766V478.601H410.775V480.371H408.973V482.158H410.702V483.881H408.973V485.98H410.895V487.766H407.109ZM407.775 478.325V477.164L410.249 476.028V477.835L407.775 478.325Z" fill="#333333"/>
<path d="M401.877 487.766L400.747 478.596H402.491L403.163 484.834L403.762 478.596H405.506L404.376 487.766H401.877Z" fill="#333333"/>
<path d="M397.467 487.766V478.601H399.238V487.766H397.467Z" fill="#333333"/>
<path d="M391.401 487.766V478.601H394.213C394.682 478.601 395.036 478.709 395.275 478.924C395.515 479.136 395.675 479.434 395.755 479.819C395.838 480.201 395.88 480.651 395.88 481.168C395.88 481.668 395.815 482.067 395.687 482.366C395.562 482.665 395.324 482.871 394.973 482.986C395.262 483.045 395.463 483.189 395.578 483.418C395.696 483.644 395.755 483.937 395.755 484.298V487.766H393.948V484.178C393.948 483.911 393.892 483.746 393.781 483.683C393.673 483.617 393.498 483.584 393.255 483.584V487.766H391.401ZM393.265 481.996H393.708C393.961 481.996 394.088 481.72 394.088 481.168C394.088 480.811 394.06 480.576 394.005 480.465C393.949 480.354 393.845 480.299 393.692 480.299H393.265V481.996Z" fill="#333333"/>
<path d="M385.294 487.766V478.601H387.715C388.222 478.601 388.623 478.714 388.918 478.939C389.217 479.165 389.43 479.486 389.559 479.903C389.687 480.319 389.752 480.816 389.752 481.392C389.752 481.948 389.698 482.432 389.59 482.845C389.482 483.255 389.29 483.572 389.012 483.798C388.738 484.024 388.347 484.136 387.84 484.136H387.096V487.766H385.294ZM387.096 482.491H387.2C387.54 482.491 387.748 482.395 387.825 482.205C387.901 482.014 387.939 481.732 387.939 481.361C387.939 481.014 387.901 480.746 387.825 480.559C387.752 480.368 387.577 480.273 387.299 480.273H387.096V482.491Z" fill="#333333"/>
<path d="M376.266 487.766V478.601H379.932V480.371H378.131V482.158H379.86V483.881H378.131V485.98H380.052V487.766H376.266Z" fill="#333333"/>
<path d="M372.45 487.849C371.614 487.849 371.01 487.641 370.638 487.224C370.27 486.808 370.086 486.145 370.086 485.235V484.34H371.898V485.485C371.898 485.697 371.93 485.864 371.992 485.985C372.058 486.103 372.171 486.162 372.331 486.162C372.497 486.162 372.612 486.114 372.674 486.016C372.74 485.919 372.773 485.759 372.773 485.537C372.773 485.256 372.745 485.022 372.69 484.834C372.634 484.643 372.537 484.463 372.398 484.293C372.263 484.119 372.074 483.918 371.831 483.689L371.008 482.907C370.393 482.328 370.086 481.665 370.086 480.918C370.086 480.137 370.267 479.542 370.628 479.132C370.992 478.722 371.518 478.518 372.206 478.518C373.046 478.518 373.641 478.741 373.992 479.189C374.346 479.637 374.523 480.318 374.523 481.231H372.659V480.601C372.659 480.476 372.622 480.378 372.549 480.309C372.48 480.24 372.384 480.205 372.263 480.205C372.117 480.205 372.009 480.246 371.94 480.33C371.874 480.41 371.841 480.514 371.841 480.642C371.841 480.771 371.876 480.91 371.945 481.059C372.015 481.208 372.152 481.38 372.357 481.574L373.414 482.59C373.626 482.791 373.82 483.005 373.997 483.23C374.174 483.453 374.316 483.713 374.424 484.011C374.532 484.307 374.585 484.668 374.585 485.095C374.585 485.956 374.426 486.631 374.106 487.12C373.79 487.606 373.238 487.849 372.45 487.849Z" fill="#333333"/>
<path d="M366.457 487.849C365.621 487.849 365.017 487.641 364.645 487.224C364.277 486.808 364.093 486.145 364.093 485.235V484.34H365.905V485.485C365.905 485.697 365.937 485.864 365.999 485.985C366.065 486.103 366.178 486.162 366.338 486.162C366.504 486.162 366.619 486.114 366.681 486.016C366.747 485.919 366.78 485.759 366.78 485.537C366.78 485.256 366.753 485.022 366.697 484.834C366.641 484.643 366.544 484.463 366.405 484.293C366.27 484.119 366.081 483.918 365.838 483.689L365.015 482.907C364.401 482.328 364.093 481.665 364.093 480.918C364.093 480.137 364.274 479.542 364.635 479.132C364.999 478.722 365.525 478.518 366.213 478.518C367.053 478.518 367.648 478.741 367.999 479.189C368.353 479.637 368.53 480.318 368.53 481.231H366.666V480.601C366.666 480.476 366.629 480.378 366.556 480.309C366.487 480.24 366.391 480.205 366.27 480.205C366.124 480.205 366.017 480.246 365.947 480.33C365.881 480.41 365.848 480.514 365.848 480.642C365.848 480.771 365.883 480.91 365.952 481.059C366.022 481.208 366.159 481.38 366.364 481.574L367.421 482.59C367.633 482.791 367.827 483.005 368.004 483.23C368.181 483.453 368.323 483.713 368.431 484.011C368.539 484.307 368.593 484.668 368.593 485.095C368.593 485.956 368.433 486.631 368.113 487.12C367.797 487.606 367.246 487.849 366.457 487.849Z" fill="#333333"/>
<path d="M357.788 487.766L358.673 478.601H361.782L362.652 487.766H360.918L360.788 486.287H359.684L359.569 487.766H357.788ZM359.814 484.824H360.647L360.246 480.163H360.163L359.814 484.824Z" fill="#333333"/>
<path d="M351.889 487.766V478.601H354.701C355.17 478.601 355.524 478.709 355.763 478.924C356.003 479.136 356.163 479.434 356.242 479.819C356.326 480.201 356.367 480.651 356.367 481.168C356.367 481.668 356.303 482.067 356.175 482.366C356.05 482.665 355.812 482.871 355.461 482.986C355.749 483.045 355.951 483.189 356.065 483.418C356.183 483.644 356.242 483.937 356.242 484.298V487.766H354.435V484.178C354.435 483.911 354.38 483.746 354.269 483.683C354.161 483.617 353.986 483.584 353.743 483.584V487.766H351.889ZM353.753 481.996H354.196C354.449 481.996 354.576 481.72 354.576 481.168C354.576 480.811 354.548 480.576 354.493 480.465C354.437 480.354 354.333 480.299 354.18 480.299H353.753V481.996Z" fill="#333333"/>
<path d="M345.74 487.766V478.601H348.552C349.021 478.601 349.375 478.709 349.615 478.924C349.854 479.136 350.014 479.434 350.094 479.819C350.177 480.201 350.219 480.651 350.219 481.168C350.219 481.668 350.154 482.067 350.026 482.366C349.901 482.665 349.663 482.871 349.313 482.986C349.601 483.045 349.802 483.189 349.917 483.418C350.035 483.644 350.094 483.937 350.094 484.298V487.766H348.287V484.178C348.287 483.911 348.231 483.746 348.12 483.683C348.012 483.617 347.837 483.584 347.594 483.584V487.766H345.74ZM347.605 481.996H348.047C348.301 481.996 348.427 481.72 348.427 481.168C348.427 480.811 348.4 480.576 348.344 480.465C348.288 480.354 348.184 480.299 348.032 480.299H347.605V481.996Z" fill="#333333"/>
<path d="M340.279 487.766V478.601H343.945V480.371H342.143V482.158H343.872V483.881H342.143V485.98H344.064V487.766H340.279Z" fill="#333333"/>
<path d="M335.78 487.766V480.361H334.692V478.601H338.702V480.361H337.614V487.766H335.78Z" fill="#333333"/>
<path d="M514.084 480.139H504.918V476.473H506.689V478.275H508.475V476.546H510.199V478.275H512.297V476.353H514.084V480.139Z" fill="#333333"/>
<path d="M514.084 486.517H504.918V484.632L509.308 483.789H504.918V482.018H514.084V483.809L509.501 484.726H514.084V486.517Z" fill="#333333"/>
<path d="M514.167 490.516C514.167 491.279 513.953 491.842 513.526 492.203C513.096 492.564 512.464 492.745 511.631 492.745H504.918V490.964H511.558C511.711 490.964 511.858 490.955 512.001 490.938C512.139 490.92 512.254 490.88 512.344 490.818C512.435 490.755 512.48 490.655 512.48 490.516C512.48 490.373 512.436 490.271 512.349 490.208C512.259 490.146 512.143 490.108 512.001 490.094C511.858 490.077 511.711 490.068 511.558 490.068H504.918V488.287H511.631C512.464 488.287 513.096 488.467 513.526 488.828C513.953 489.19 514.167 489.752 514.167 490.516Z" fill="#333333"/>
<path d="M514.084 501.659H504.918V498.867L510.506 498.097L504.918 497.331V494.514H514.084V496.191H507.481L514.084 497.243V498.888L507.481 500.003H514.084V501.659Z" fill="#333333"/>
<path d="M514.084 510.682H504.918V507.891L510.506 507.12L504.918 506.355V503.537H514.084V505.214H507.481L514.084 506.266V507.912L507.481 509.026H514.084V510.682Z" fill="#333333"/>
<path d="M514.167 514.748C514.167 515.481 513.947 516.041 513.506 516.43C513.061 516.815 512.421 517.008 511.584 517.008H507.231C506.446 517.008 505.851 516.817 505.444 516.435C505.038 516.05 504.835 515.487 504.835 514.748C504.835 514.009 505.038 513.448 505.444 513.066C505.851 512.681 506.446 512.488 507.231 512.488H511.584C512.421 512.488 513.061 512.682 513.506 513.071C513.947 513.457 514.167 514.016 514.167 514.748ZM512.48 514.732C512.48 514.455 512.211 514.316 511.673 514.316H507.199C506.748 514.316 506.522 514.451 506.522 514.722C506.522 515.027 506.753 515.18 507.215 515.18H511.683C511.968 515.18 512.173 515.146 512.297 515.076C512.419 515.007 512.48 514.892 512.48 514.732Z" fill="#333333"/>
<path d="M514.167 520.928C514.167 521.591 513.96 522.126 513.547 522.532C513.134 522.935 512.556 523.136 511.813 523.136H507.585C506.696 523.136 506.016 522.961 505.543 522.61C505.071 522.256 504.835 521.681 504.835 520.886C504.835 520.453 504.915 520.067 505.075 519.73C505.234 519.39 505.474 519.123 505.793 518.928C506.109 518.734 506.509 518.637 506.991 518.637H508.574V520.459H507.22C506.946 520.459 506.762 520.494 506.668 520.564C506.571 520.633 506.522 520.741 506.522 520.886C506.522 521.057 506.585 521.171 506.71 521.23C506.831 521.289 506.995 521.319 507.199 521.319H511.787C512.041 521.319 512.219 521.282 512.324 521.209C512.428 521.133 512.48 521.025 512.48 520.886C512.48 520.73 512.416 520.621 512.287 520.558C512.159 520.492 511.992 520.459 511.787 520.459H510.136V518.616H511.87C512.676 518.616 513.261 518.819 513.625 519.225C513.986 519.631 514.167 520.199 514.167 520.928Z" fill="#333333"/>
<path d="M514.084 532.091H504.918V528.425H506.689V530.227H508.475V528.498H510.199V530.227H512.297V528.305H514.084V532.091Z" fill="#333333"/>
<path d="M514.167 535.907C514.167 536.744 513.959 537.348 513.542 537.719C513.125 538.087 512.462 538.271 511.553 538.271H510.657V536.459H511.803C512.015 536.459 512.181 536.428 512.303 536.365C512.421 536.299 512.48 536.186 512.48 536.027C512.48 535.86 512.431 535.746 512.334 535.683C512.237 535.617 512.077 535.584 511.855 535.584C511.574 535.584 511.339 535.612 511.152 535.667C510.961 535.723 510.78 535.82 510.61 535.959C510.437 536.094 510.235 536.284 510.006 536.527L509.225 537.349C508.645 537.964 507.982 538.271 507.236 538.271C506.455 538.271 505.859 538.091 505.45 537.73C505.04 537.365 504.835 536.839 504.835 536.152C504.835 535.312 505.059 534.716 505.507 534.366C505.955 534.011 506.635 533.834 507.548 533.834V535.699H506.918C506.793 535.699 506.696 535.735 506.627 535.808C506.557 535.877 506.522 535.973 506.522 536.094C506.522 536.24 506.564 536.348 506.647 536.417C506.727 536.483 506.831 536.516 506.96 536.516C507.088 536.516 507.227 536.481 507.376 536.412C507.526 536.343 507.698 536.205 507.892 536.001L508.907 534.944C509.109 534.732 509.322 534.537 509.548 534.36C509.77 534.183 510.031 534.041 510.329 533.933C510.624 533.826 510.985 533.772 511.412 533.772C512.273 533.772 512.948 533.932 513.438 534.251C513.924 534.567 514.167 535.119 514.167 535.907Z" fill="#333333"/>
<path d="M514.167 541.9C514.167 542.736 513.959 543.34 513.542 543.712C513.125 544.08 512.462 544.264 511.553 544.264H510.657V542.452H511.803C512.015 542.452 512.181 542.42 512.303 542.358C512.421 542.292 512.48 542.179 512.48 542.02C512.48 541.853 512.431 541.738 512.334 541.676C512.237 541.61 512.077 541.577 511.855 541.577C511.574 541.577 511.339 541.605 511.152 541.66C510.961 541.716 510.78 541.813 510.61 541.952C510.437 542.087 510.235 542.276 510.006 542.519L509.225 543.342C508.645 543.957 507.982 544.264 507.236 544.264C506.455 544.264 505.859 544.083 505.45 543.722C505.04 543.358 504.835 542.832 504.835 542.144C504.835 541.304 505.059 540.709 505.507 540.358C505.955 540.004 506.635 539.827 507.548 539.827V541.691H506.918C506.793 541.691 506.696 541.728 506.627 541.801C506.557 541.87 506.522 541.966 506.522 542.087C506.522 542.233 506.564 542.341 506.647 542.41C506.727 542.476 506.831 542.509 506.96 542.509C507.088 542.509 507.227 542.474 507.376 542.405C507.526 542.335 507.698 542.198 507.892 541.993L508.907 540.936C509.109 540.725 509.322 540.53 509.548 540.353C509.77 540.176 510.031 540.034 510.329 539.926C510.624 539.818 510.985 539.765 511.412 539.765C512.273 539.765 512.948 539.924 513.438 540.244C513.924 540.56 514.167 541.112 514.167 541.9Z" fill="#333333"/>
<path d="M514.084 550.569L504.918 549.684V546.575L514.084 545.705V547.439L512.605 547.569V548.673L514.084 548.788V550.569ZM511.141 548.543V547.71L506.481 548.111V548.194L511.141 548.543Z" fill="#333333"/>
<path d="M514.084 556.468H504.918V553.656C504.918 553.187 505.026 552.833 505.241 552.594C505.453 552.354 505.752 552.195 506.137 552.115C506.519 552.031 506.968 551.99 507.486 551.99C507.986 551.99 508.385 552.054 508.683 552.182C508.982 552.307 509.189 552.545 509.303 552.896C509.362 552.608 509.506 552.406 509.735 552.292C509.961 552.174 510.254 552.115 510.615 552.115H514.084V553.922H510.496C510.228 553.922 510.063 553.977 510.001 554.088C509.935 554.196 509.902 554.371 509.902 554.614H514.084V556.468ZM508.314 554.604V554.161C508.314 553.908 508.038 553.781 507.486 553.781C507.128 553.781 506.894 553.809 506.783 553.864C506.672 553.92 506.616 554.024 506.616 554.177V554.604H508.314Z" fill="#333333"/>
<path d="M514.084 562.617H504.918V559.805C504.918 559.336 505.026 558.982 505.241 558.743C505.453 558.503 505.752 558.343 506.137 558.264C506.519 558.18 506.968 558.139 507.486 558.139C507.986 558.139 508.385 558.203 508.683 558.331C508.982 558.456 509.189 558.694 509.303 559.045C509.362 558.757 509.506 558.555 509.735 558.441C509.961 558.323 510.254 558.264 510.615 558.264H514.084V560.071H510.496C510.228 560.071 510.063 560.126 510.001 560.237C509.935 560.345 509.902 560.52 509.902 560.763H514.084V562.617ZM508.314 560.753V560.31C508.314 560.057 508.038 559.93 507.486 559.93C507.128 559.93 506.894 559.958 506.783 560.013C506.672 560.069 506.616 560.173 506.616 560.326V560.753H508.314Z" fill="#333333"/>
<path d="M514.084 568.079H504.918V564.413H506.689V566.214H508.475V564.485H510.199V566.214H512.297V564.293H514.084V568.079Z" fill="#333333"/>
<path d="M514.084 572.577H506.679V573.665H504.918V569.656H506.679V570.744H514.084V572.577Z" fill="#333333"/>
<path d="M455.51 318.787C455.51 319.45 455.304 319.985 454.891 320.391C454.477 320.794 453.899 320.995 453.156 320.995H448.928C448.039 320.995 447.359 320.82 446.887 320.469C446.415 320.115 446.178 319.541 446.178 318.746C446.178 318.312 446.258 317.926 446.418 317.59C446.578 317.249 446.817 316.982 447.137 316.788C447.453 316.593 447.852 316.496 448.334 316.496H449.917V318.319H448.563C448.289 318.319 448.105 318.353 448.011 318.423C447.914 318.492 447.866 318.6 447.866 318.746C447.866 318.916 447.928 319.03 448.053 319.089C448.175 319.148 448.338 319.178 448.543 319.178H453.13C453.384 319.178 453.563 319.141 453.667 319.068C453.771 318.992 453.823 318.884 453.823 318.746C453.823 318.589 453.759 318.48 453.63 318.417C453.502 318.352 453.335 318.319 453.13 318.319H451.48V316.475H453.214C454.019 316.475 454.604 316.678 454.969 317.084C455.33 317.491 455.51 318.058 455.51 318.787Z" fill="#333333"/>
<path d="M455.427 328.863L446.262 329.847V328.055L452.047 327.55L446.262 327.035V325.327L452.047 324.837L446.262 324.348V322.536L455.427 323.535V325.733L451.016 326.191L455.427 326.629V328.863Z" fill="#333333"/>
<path d="M52.828 255.67H43.6628V253.785L48.0527 252.941H43.6628V251.17H52.828V252.962L48.2454 253.878H52.828V255.67Z" fill="#333333"/>
<path d="M52.9114 259.736C52.9114 260.468 52.6909 261.029 52.25 261.418C51.8056 261.803 51.1651 261.996 50.3285 261.996H45.975C45.1904 261.996 44.595 261.805 44.1889 261.423C43.7827 261.038 43.5796 260.475 43.5796 259.736C43.5796 258.996 43.7827 258.436 44.1889 258.054C44.595 257.668 45.1904 257.476 45.975 257.476H50.3285C51.1651 257.476 51.8056 257.67 52.25 258.059C52.6909 258.444 52.9114 259.003 52.9114 259.736ZM51.2241 259.72C51.2241 259.442 50.9551 259.303 50.417 259.303H45.9438C45.4925 259.303 45.2668 259.439 45.2668 259.71C45.2668 260.015 45.4977 260.168 45.9594 260.168H50.4274C50.7121 260.168 50.9169 260.133 51.0419 260.064C51.1634 259.994 51.2241 259.88 51.2241 259.72Z" fill="#333333"/>
<path d="M52.9114 265.916C52.9114 266.579 52.7048 267.114 52.2917 267.52C51.8785 267.922 51.3005 268.124 50.5576 268.124H46.3291C45.4404 268.124 44.7599 267.949 44.2878 267.598C43.8157 267.244 43.5796 266.669 43.5796 265.874C43.5796 265.44 43.6594 265.055 43.8191 264.718C43.9788 264.378 44.2184 264.111 44.5378 263.916C44.8537 263.722 45.2529 263.625 45.7355 263.625H47.3185V265.447H45.9646C45.6903 265.447 45.5063 265.482 45.4126 265.551C45.3154 265.621 45.2668 265.728 45.2668 265.874C45.2668 266.044 45.3293 266.159 45.4543 266.218C45.5758 266.277 45.7389 266.306 45.9438 266.306H50.5315C50.785 266.306 50.9638 266.27 51.0679 266.197C51.1721 266.121 51.2241 266.013 51.2241 265.874C51.2241 265.718 51.1599 265.609 51.0315 265.546C50.903 265.48 50.7364 265.447 50.5315 265.447H48.8808V263.604H50.6149C51.4203 263.604 52.0053 263.807 52.3698 264.213C52.7308 264.619 52.9114 265.187 52.9114 265.916Z" fill="#333333"/>
<path d="M52.828 273.356H43.6628V271.523H51.2657V269.638H52.828V273.356Z" fill="#333333"/>
<path d="M52.828 279.849L43.6628 278.964V275.855L52.828 274.985V276.719L51.349 276.85V277.953L52.828 278.068V279.849ZM49.8858 277.823V276.99L45.2251 277.391V277.474L49.8858 277.823Z" fill="#333333"/>
<path d="M52.828 285.769H43.6628V283.285C43.6628 282.618 43.826 282.134 44.1523 281.832C44.4752 281.526 45.0098 281.374 45.7562 281.374H46.1572C46.5877 281.374 46.9366 281.452 47.2039 281.608C47.4712 281.761 47.6465 281.995 47.7299 282.311C47.834 281.898 48.0788 281.622 48.4641 281.483C48.846 281.341 49.3129 281.27 49.8649 281.27C50.4586 281.27 50.9776 281.325 51.422 281.436C51.8663 281.547 52.2117 281.749 52.4582 282.04C52.7047 282.332 52.828 282.747 52.828 283.285V285.769ZM47.1154 283.977V283.602C47.1154 283.432 47.0494 283.323 46.9175 283.274C46.7856 283.226 46.6276 283.202 46.4436 283.202H45.5219C45.2268 283.202 45.0793 283.332 45.0793 283.592V283.977H47.1154ZM51.2137 283.795C51.2137 283.32 50.988 283.082 50.5367 283.082H49.391C49.1307 283.082 48.9258 283.122 48.7766 283.202C48.6238 283.278 48.5474 283.424 48.5474 283.639V283.977H51.2032C51.2102 283.901 51.2137 283.84 51.2137 283.795Z" fill="#333333"/>
<path d="M208.333 118V224.675H210.333V221.362H231.667V219.374H210.333V118H211.667V218.049H233V222.687H211.667V226H207V118H208.333Z" fill="black"/>
<path d="M206.886 226L207 227.301H206.997C206.996 227.301 206.994 227.302 206.991 227.302C206.984 227.303 206.975 227.304 206.962 227.305C206.935 227.307 206.896 227.31 206.844 227.315C206.739 227.325 206.584 227.339 206.383 227.36C205.982 227.401 205.399 227.467 204.678 227.563C203.237 227.754 201.246 228.064 199.054 228.54C194.638 229.498 189.528 231.106 186.373 233.68C182.598 236.761 180.1 242.471 178.547 247.534C177.777 250.045 177.25 252.36 176.915 254.047C176.748 254.89 176.63 255.575 176.553 256.048C176.552 256.051 176.552 256.053 176.551 256.056L206.958 256.694L206.929 258L175.754 257.347L175 257.33L175.097 256.61V256.608L175.098 256.606C175.098 256.603 175.099 256.6 175.099 256.596C175.1 256.587 175.102 256.574 175.105 256.557C175.109 256.523 175.116 256.473 175.126 256.408C175.145 256.278 175.174 256.088 175.213 255.845C175.292 255.36 175.413 254.66 175.584 253.802C175.924 252.085 176.461 249.726 177.248 247.164C178.808 242.077 181.394 236.031 185.496 232.683C188.92 229.889 194.313 228.23 198.756 227.265C200.994 226.78 203.024 226.464 204.493 226.269C205.228 226.172 205.824 226.104 206.238 226.061C206.444 226.04 206.605 226.025 206.715 226.015C206.77 226.01 206.812 226.006 206.841 226.004C206.855 226.003 206.867 226.002 206.874 226.001C206.878 226.001 206.881 226 206.884 226H206.886Z" fill="black"/>
<path d="M304.774 225.149L304.61 226.471L304.613 226.472C304.614 226.472 304.617 226.473 304.619 226.473C304.626 226.474 304.635 226.475 304.648 226.477C304.674 226.48 304.712 226.485 304.763 226.492C304.866 226.505 305.018 226.526 305.214 226.555C305.607 226.613 306.178 226.702 306.882 226.827C308.291 227.076 310.235 227.469 312.371 228.037C316.673 229.183 321.632 231.017 324.631 233.763C328.219 237.048 330.448 242.967 331.774 248.189C332.432 250.78 332.858 253.16 333.121 254.894C333.252 255.76 333.341 256.463 333.398 256.948C333.399 256.956 333.4 256.964 333.401 256.972L303.45 257.114L303.455 258.448L334.145 258.304L334.871 258.299L334.807 257.576L334.807 257.575L334.806 257.572C334.805 257.57 334.805 257.566 334.805 257.562C334.804 257.553 334.803 257.54 334.801 257.523C334.798 257.488 334.793 257.436 334.786 257.37C334.772 257.237 334.752 257.042 334.722 256.793C334.664 256.294 334.572 255.576 334.439 254.695C334.172 252.931 333.738 250.505 333.066 247.861C331.734 242.615 329.431 236.35 325.532 232.779C322.278 229.8 317.042 227.902 312.714 226.749C310.533 226.168 308.551 225.769 307.115 225.515C306.396 225.387 305.813 225.296 305.409 225.236C305.206 225.206 305.049 225.185 304.941 225.171C304.887 225.164 304.846 225.158 304.818 225.155C304.804 225.153 304.793 225.152 304.785 225.151C304.782 225.15 304.778 225.149 304.776 225.149L304.774 225.149Z" fill="black"/>
<path d="M232.136 217.062L233.46 217.207L233.46 217.204C233.46 217.203 233.461 217.2 233.462 217.197C233.462 217.191 233.464 217.182 233.465 217.169C233.468 217.143 233.472 217.104 233.478 217.053C233.491 216.951 233.51 216.798 233.536 216.602C233.588 216.208 233.668 215.636 233.782 214.929C234.01 213.517 234.372 211.568 234.905 209.425C235.978 205.108 237.717 200.124 240.373 197.089C243.549 193.461 249.32 191.158 254.42 189.765C256.95 189.074 259.277 188.616 260.972 188.331C261.819 188.189 262.508 188.091 262.983 188.028C262.985 188.027 262.987 188.027 262.989 188.026L263.477 217.97L264.809 217.948L264.298 186.535L263.574 186.611L263.572 186.612L263.57 186.612C263.567 186.612 263.564 186.612 263.559 186.613C263.55 186.614 263.537 186.615 263.52 186.617C263.486 186.621 263.436 186.626 263.371 186.634C263.241 186.649 263.051 186.673 262.807 186.705C262.318 186.77 261.615 186.872 260.751 187.017C259.025 187.307 256.652 187.772 254.068 188.478C248.941 189.879 242.826 192.264 239.37 196.211C236.488 199.503 234.69 204.761 233.611 209.104C233.067 211.291 232.699 213.278 232.467 214.718C232.35 215.437 232.267 216.021 232.213 216.426C232.187 216.629 232.167 216.787 232.154 216.895C232.148 216.949 232.144 216.99 232.141 217.018C232.139 217.032 232.137 217.043 232.136 217.051L232.136 217.062Z" fill="black"/>
<path d="M466.023 368.456L466.153 369.783L466.152 369.783C466.15 369.783 466.147 369.784 466.144 369.784C466.138 369.785 466.128 369.786 466.115 369.787C466.09 369.79 466.051 369.794 466 369.799C465.897 369.81 465.744 369.828 465.547 369.852C465.153 369.899 464.58 369.974 463.873 370.08C462.457 370.294 460.505 370.634 458.357 371.144C454.027 372.171 449.025 373.858 445.961 376.485C442.299 379.625 439.932 385.379 438.483 390.472C437.764 392.999 437.281 395.325 436.978 397.019C436.827 397.86 436.721 398.544 436.653 399.019L466.761 399.114L466.758 399.781L466.757 400.447L435.89 400.35L435.144 400.348L435.229 399.607L435.228 399.606L435.23 399.606L435.23 399.602C435.23 399.6 435.23 399.597 435.231 399.593C435.232 399.584 435.233 399.571 435.236 399.554C435.24 399.52 435.246 399.469 435.254 399.404C435.271 399.274 435.296 399.083 435.331 398.839C435.402 398.351 435.511 397.648 435.666 396.784C435.974 395.059 436.466 392.688 437.2 390.108C438.657 384.987 441.109 378.889 445.094 375.472C448.418 372.622 453.695 370.88 458.049 369.847C460.242 369.326 462.232 368.979 463.674 368.762C464.395 368.653 464.981 368.577 465.387 368.527C465.589 368.503 465.748 368.485 465.856 368.473C465.91 368.467 465.951 368.464 465.979 368.461C465.993 368.46 466.004 368.457 466.012 368.457L466.023 368.456Z" fill="black"/>
<path d="M475 101L473.657 368H466.315V356.809C466.001 356.865 465.668 356.913 465.361 356.934C465.065 356.955 464.733 356.957 464.452 356.891C464.312 356.858 464.126 356.795 463.963 356.659C463.775 356.502 463.644 356.268 463.644 355.985V351.98H466.315V286.565H435.599V352.648H436.934V358.655H431.592V367.333H416.234V325.948H430.257V272.548H263.319V263.87H298.71V257.195H304.052V263.87H466.983V118.355H436.934V101H475ZM438.27 117.02H468.319V265.205H302.717V258.53H300.046V265.205H264.655V271.213H431.592V327.283H417.57V365.998H430.257V357.32H435.599V353.983H434.263V285.23H467.651V353.315H464.98V355.61C465.058 355.611 465.154 355.611 465.267 355.603C465.769 355.568 466.396 355.443 466.821 355.337L467.651 355.13V366.665H472.329L473.657 102.335H438.27V117.02ZM347.456 101V118.355H304.052V225.823H298.71V223.153H263.319V217.813H298.71V118.355H206.56V101H347.456ZM300.046 219.148H264.655V221.818H300.046V224.488H302.717V118.355H300.046V219.148ZM127.766 103.003V118.355H84.3674L85.0351 215.81H69.6756L69 103.003H127.766ZM71.0033 214.475H83.6892L83.0215 117.02H126.43V104.338H70.3433L71.0033 214.475ZM207.896 117.02H346.12V102.335H207.896V117.02Z" fill="black"/>
<path d="M85.0422 318.192V354.45L113.984 377.238L105.254 391L104.674 390.552L69 363.074L70.366 318.192H85.0422ZM70.3556 362.437L104.908 389.051L112.211 377.539L83.9593 355.296L83.7062 355.096V319.522H71.6628L70.3556 362.437ZM211.292 257V263.651H232V272.963H85.0422V276.954H70.3464V258.33H85.0422V263.651H206.616V257H211.292ZM207.952 264.982H83.7062V259.661H71.6824V275.624H83.7062V271.633H230.664V264.982H209.956V258.33H207.952V264.982Z" fill="black"/>
<path d="M140.279 396.412L173.346 420.772L345.338 419.445V434.67L167.814 435.999L167.592 436L167.413 435.868L131 409.016L139.716 396L140.279 396.412ZM132.808 408.702L168.024 434.672L344.008 433.355V420.78L173.133 422.098L172.911 422.1L172.732 421.969L140.048 397.89L132.808 408.702ZM431.776 398.931V418.127H466.351V398.931H473V432.689H414.488V418.127H426.457V398.931H431.776ZM467.681 419.451H415.818V431.365H471.67V400.255H467.681V419.451ZM427.786 418.127H430.446V400.255H427.786V418.127Z" fill="black"/>
<path d="M79 276.333V319H78V276.333H79ZM79 215V258.333H78V215H79Z" fill="black"/>
<path d="M207 112V113H128V112H207Z" fill="black"/>
<path d="M437 111V112H347V111H437Z" fill="black"/>
<path d="M473 433V645L167 436.219L167.749 435.117L471.668 642.478V433H473Z" fill="black"/>
<path d="M473 433V645L167 436.219L167.749 435.117L471.668 642.478V433H473Z" fill="black" fill-opacity="0.2"/>
<path d="M503 432V433H471V432H503Z" fill="black"/>
<path d="M137 400.913L136.182 402L110 383.087L110.818 382L137 400.913Z" fill="black"/>
<path d="M415 426V427H345V426H415Z" fill="black"/>
<path d="M272 110V112H241V110H272Z" fill="black"/>
<path d="M242 102.936V118H240.663V102.936H242ZM212.586 89V101.608H211.249V90.3272H122.337V104.263H121V89H212.586Z" fill="black"/>
<path d="M70.3152 209V210.333H22.3511V325.008L71 325.667L70.9815 327L21 326.324V209H70.3152Z" fill="black"/>
<path d="M273 102V118H272V102H273Z" fill="black"/>
</svg>
